#!OML:ASF H:\MichaelJackson\Top Level 1\Subject 1\Session 1\male.ASF
:FULLY-SPECIFIED
:DEGREES
1275
root -11.3442 16.4652 26.766 -175.778 179.616 180.684
lowerback -1.14843 -4.75977 1.37011
upperback -0.471106 -6.36307 -2.05494
thorax -0.225038 -3.19394 -2.90818
lowerneck -6.65871 0.346098 4.29157
upperneck 7.61174 0.0262153 -0.0516566
head 3.66328 0.136845 -0.774416
rclavicle 4.21423e-014 2.38542e-015
rhumerus 17.9418 -21.8308 6.39162
rradius 27.2779
rwrist -8.59526
rhand -9.18963 -5.23901
rfingers 7.12502
rthumb 16.7639 -1114.54
lclavicle 4.21423e-014 2.38542e-015
lhumerus -51.3105 -29.0474 113.064
lradius 52.9125
lwrist 23.0769
lhand 26.5237 34.477
lfingers 7.12502
lthumb 50.5563 55.4027
rfemur -16.8135 -6.01911 2.74791
rtibia 34.6992
rfoot -8.85119 -19.4535
rtoes -26.5764
lfemur -7.03087 -17.5068 -2.55663
ltibia 21.8501
lfoot -18.5491 15.8247
ltoes -21.9947
1276
root -11.3432 16.4646 26.761 -175.801 179.61 180.72
lowerback -1.09648 -4.73564 1.28716
upperback -0.476364 -6.3298 -2.05742
thorax -0.248673 -3.17725 -2.86025
lowerneck -6.66233 0.317793 4.32299
upperneck 7.6421 -0.0138937 -0.0706297
head 3.67392 0.117579 -0.788549
rclavicle -7.10407e-014 1.35174e-014
rhumerus 17.9501 -21.8754 6.37897
rradius 27.295
rwrist -8.56431
rhand -9.24129 -5.06622
rfingers 7.12502
rthumb 16.7142 -1114.37
lclavicle -7.10407e-014 1.35174e-014
lhumerus -51.3725 -29.1552 113.142
lradius 52.9631
lwrist 23.0564
lhand 26.4538 34.4384
lfingers 7.12502
lthumb 50.4925 55.3986
rfemur -16.8244 -6.03126 2.70028
rtibia 34.7271
rfoot -8.82628 -19.4321
rtoes -26.5681
lfemur -7.02578 -17.5332 -2.59519
ltibia 21.8402
lfoot -18.5461 15.8175
ltoes -21.9779
1277
root -11.3418 16.4639 26.7566 -175.819 179.599 180.739
lowerback -1.05809 -4.71372 1.22566
upperback -0.48194 -6.29983 -2.05774
thorax -0.267431 -3.16224 -2.82313
lowerneck -6.66811 0.286957 4.34457
upperneck 7.66497 -0.0576152 -0.0757545
head 3.68213 0.096722 -0.796503
rclavicle 2.58917e-014 -1.19271e-014
rhumerus 17.9692 -21.9392 6.3489
rradius 27.2982
rwrist -8.50943
rhand -9.28761 -4.88637
rfingers 7.12502
rthumb 16.6696 -1114.19
lclavicle 2.58917e-014 -1.19271e-014
lhumerus -51.4239 -29.2454 113.208
lradius 53
lwrist 23.0817
lhand 26.3732 34.4012
lfingers 7.12502
lthumb 50.4188 55.4013
rfemur -16.8326 -6.0577 2.66863
rtibia 34.7459
rfoot -8.80538 -19.3986
rtoes -26.5561
lfemur -7.03111 -17.5038 -2.60563
ltibia 21.8318
lfoot -18.5715 15.7392
ltoes -21.9292
1278
root -11.3399 16.4631 26.753 -175.834 179.58 180.739
lowerback -1.03292 -4.69591 1.1908
upperback -0.485416 -6.27565 -2.05624
thorax -0.279706 -3.15013 -2.80007
lowerneck -6.67312 0.253639 4.35173
upperneck 7.67407 -0.104286 -0.0657627
head 3.68512 0.0744172 -0.796957
rclavicle -2.57923e-014 1.59028e-015
rhumerus 17.997 -22.0008 6.31115
rradius 27.2941
rwrist -8.4261
rhand -9.33232 -4.7061
rfingers 7.12502
rthumb 16.6265 -1114.01
lclavicle -2.57923e-014 1.59028e-015
lhumerus -51.4527 -29.306 113.251
lradius 53.0156
lwrist 23.1384
lhand 26.3045 34.3717
lfingers 7.12502
lthumb 50.356 55.4055
rfemur -16.8285 -6.10035 2.65333
rtibia 34.7495
rfoot -8.79138 -19.3529
rtoes -26.5537
lfemur -7.04297 -17.4441 -2.59115
ltibia 21.8281
lfoot -18.6214 15.6154
ltoes -21.8515
1279
root -11.3374 16.4623 26.7499 -175.843 179.553 180.718
lowerback -1.02153 -4.6819 1.19094
upperback -0.487965 -6.25695 -2.05365
thorax -0.287321 -3.14085 -2.79639
lowerneck -6.67694 0.219484 4.34392
upperneck 7.67087 -0.151903 -0.037711
head 3.68339 0.0517867 -0.788731
rclavicle 2.31833e-014 3.97569e-014
rhumerus 18.0219 -22.0206 6.28276
rradius 27.2925
rwrist -8.38034
rhand -9.38172 -4.53585
rfingers 7.12502
rthumb 16.579 -1113.85
lclavicle 2.31833e-014 3.97569e-014
lhumerus -51.4552 -29.3306 113.267
lradius 53.0075
lwrist 23.2084
lhand 26.2571 34.3497
lfingers 7.12502
lthumb 50.3127 55.4067
rfemur -16.8132 -6.1601 2.65842
rtibia 34.7343
rfoot -8.7849 -19.2946
rtoes -26.5479
lfemur -7.06406 -17.3765 -2.55153
ltibia 21.8321
lfoot -18.685 15.4801
ltoes -21.7731
1280
root -11.3342 16.4617 26.7475 -175.853 179.52 180.679
lowerback -1.01979 -4.67168 1.22372
upperback -0.487598 -6.24361 -2.05097
thorax -0.290347 -3.13432 -2.81153
lowerneck -6.68097 0.184276 4.32313
upperneck 7.65538 -0.200769 0.00560134
head 3.67724 0.0286173 -0.773129
rclavicle 3.79927e-014 2.38542e-014
rhumerus 18.045 -22.0166 6.25974
rradius 27.2896
rwrist -8.32659
rhand -9.4305 -4.35866
rfingers 7.12502
rthumb 16.532 -1113.67
lclavicle 3.79927e-014 2.38542e-014
lhumerus -51.4308 -29.3161 113.253
lradius 52.9774
lwrist 23.2713
lhand 26.2454 34.3418
lfingers 7.12502
lthumb 50.3021 55.4045
rfemur -16.7813 -6.23713 2.68016
rtibia 34.7005
rfoot -8.78786 -19.2218
rtoes -26.5428
lfemur -7.08676 -17.3273 -2.49547
ltibia 21.845
lfoot -18.7563 15.3612
ltoes -21.6963
1281
root -11.33 16.4612 26.7455 -175.859 179.487 180.629
lowerback -1.02741 -4.66183 1.28292
upperback -0.48612 -6.23107 -2.05043
thorax -0.290103 -3.12827 -2.84424
lowerneck -6.68635 0.150557 4.29663
upperneck 7.6309 -0.24774 0.0576833
head 3.66825 0.00645337 -0.753471
rclavicle 1.48592e-014 -2.38542e-014
rhumerus 18.068 -21.9718 6.24175
rradius 27.2993
rwrist -8.29748
rhand -9.48787 -4.19934
rfingers 7.12502
rthumb 16.4768 -1113.52
lclavicle 1.48592e-014 -2.38542e-014
lhumerus -51.3768 -29.2706 113.212
lradius 52.9244
lwrist 23.3127
lhand 26.2652 34.3441
lfingers 7.12502
lthumb 50.3201 55.3971
rfemur -16.7433 -6.32873 2.71003
rtibia 34.6513
rfoot -8.79578 -19.1323
rtoes -26.5399
lfemur -7.11203 -17.3148 -2.43547
ltibia 21.8668
lfoot -18.8234 15.2943
ltoes -21.6439
1282
root -11.3252 16.4608 26.7437 -175.862 179.46 180.579
lowerback -1.04188 -4.65084 1.35409
upperback -0.484796 -6.21717 -2.05397
thorax -0.287825 -3.1216 -2.88828
lowerneck -6.69053 0.120401 4.27673
upperneck 7.60138 -0.290043 0.105174
head 3.65745 -0.0134893 -0.736244
rclavicle -3.46631e-014 -9.54166e-015
rhumerus 18.0971 -21.9188 6.21491
rradius 27.3166
rwrist -8.23917
rhand -9.5486 -4.0421
rfingers 7.12502
rthumb 16.4183 -1113.37
lclavicle -3.46631e-014 -9.54166e-015
lhumerus -51.3012 -29.1991 113.15
lradius 52.856
lwrist 23.3206
lhand 26.3182 34.3749
lfingers 7.12502
lthumb 50.3686 55.4019
rfemur -16.704 -6.43102 2.73705
rtibia 34.5922
rfoot -8.80806 -19.0273
rtoes -26.5347
lfemur -7.13699 -17.3421 -2.38505
ltibia 21.8956
lfoot -18.8799 15.2885
ltoes -21.6247
1283
root -11.3199 16.4606 26.7419 -175.861 179.444 180.534
lowerback -1.05839 -4.63741 1.4273
upperback -0.485952 -6.20013 -2.06117
thorax -0.287344 -3.11342 -2.93726
lowerneck -6.69123 0.0950187 4.2589
upperneck 7.56767 -0.32574 0.150938
head 3.64471 -0.0302564 -0.719582
rclavicle -3.00662e-014 -1.98785e-014
rhumerus 18.1359 -21.8658 6.17321
rradius 27.3467
rwrist -8.15946
rhand -9.611 -3.88109
rfingers 7.12502
rthumb 16.3582 -1113.21
lclavicle -3.00662e-014 -1.98785e-014
lhumerus -51.2161 -29.1101 113.077
lradius 52.7821
lwrist 23.2884
lhand 26.3984 34.4328
lfingers 7.12502
lthumb 50.4418 55.4205
rfemur -16.6702 -6.5352 2.75623
rtibia 34.5294
rfoot -8.81831 -18.9132
rtoes -26.5337
lfemur -7.16022 -17.4042 -2.35019
ltibia 21.929
lfoot -18.9225 15.3422
ltoes -21.6356
